<svg width="15" height="15" viewBox="0 0 15 15" fill="none" xmlns="http://www.w3.org/2000/svg">
<path fill-rule="evenodd" clip-rule="evenodd" d="M7.82788 0.73033L9.60788 5.15033L14.1679 5.56133C14.4839 5.59033 14.6129 6.00333 14.3729 6.22133L10.9149 9.36333L11.9509 14.0373C12.0229 14.3613 11.6869 14.6173 11.4159 14.4443L7.49688 11.9673L3.57888 14.4443C3.30688 14.6163 2.97188 14.3613 3.04388 14.0373L4.07988 9.36333L0.621881 6.22133C0.381881 6.00333 0.508881 5.58933 0.825881 5.56133L5.38588 5.15033L7.16588 0.73033C7.19093 0.662732 7.23608 0.604425 7.29526 0.563249C7.35443 0.522072 7.42479 0.5 7.49688 0.5C7.56897 0.5 7.63933 0.522072 7.69851 0.563249C7.75768 0.604425 7.80283 0.662732 7.82788 0.73033Z" fill="#FCE8F9" stroke="#FCE8F9"/>
</svg>
